# xmcd
#
# Track frame offsets: 
#        150
#        13775
#        27562
#        44312
#        58202
#        76137
#        94262
#        111012
#        123647
#        138030
#        151865
#        172467
#
# Disc length: 2501 seconds
#
# Revision: 0
# Processed by: cddbd v1.5.1PL0 Copyright (c) Steve Scherf et al.
# Submitted via: ExactAudioCopy v0.95b2
#
DISCID=a009c30c
DTITLE=Jane Powell - Can't We Be Friends?
DYEAR=2004
DGENRE=Blues
TTITLE0=My Baby Just Care For Me
TTITLE1=For Every Man There's A Woman
TTITLE2=Imagination
TTITLE3=Hooray For Love
TTITLE4=I Got It Bad And That Ain't Good
TTITLE5=Ev'ry Time
TTITLE6=Comes Love
TTITLE7=Let's Face The Music
TTITLE8=In Love In Vain
TTITLE9=How Come You Do Me Like You Do
TTITLE10=Can't We Be Friends
TTITLE11=The Things We Did Last Summer
EXTD=
EXTT0=
EXTT1=
EXTT2=
EXTT3=
EXTT4=
EXTT5=
EXTT6=
EXTT7=
EXTT8=
EXTT9=
EXTT10=
EXTT11=
PLAYORDER=
